name Walk9.mot
datacolumns 19
datarows 25
range 3.66500000 3.78500000
endheader

                time	   L_ground_force_vx	   L_ground_force_vy	   L_ground_force_vz	   L_ground_force_px	   L_ground_force_py	   L_ground_force_pz	   R_ground_force_vx	   R_ground_force_vy	   R_ground_force_vz	   R_ground_force_px	   R_ground_force_py	   R_ground_force_pz	   L_ground_torque_x	   L_ground_torque_y	   L_ground_torque_z	   R_ground_torque_x	   R_ground_torque_y	   R_ground_torque_z	
          3.66500000	          0.00000000	          0.00000000	         -0.00000000	         -0.00000000	          0.00000000	         -0.00000000	          5.07424724	         38.08052400	         -0.75157095	          0.27526699	          0.00000000	          0.08792604	          0.00000000	          0.00000000	          0.00000000	          0.00000000	         -1.22519348	          0.00000000	
          3.67000000	          0.00000000	          0.00000000	         -0.00000000	         -0.00000000	          0.00000000	         -0.00000000	          2.10800731	         23.07496168	         -0.51999704	          0.23139946	          0.00000000	          0.07288693	          0.00000000	          0.00000000	          0.00000000	          0.00000000	         -0.64031957	          0.00000000	
          3.67500000	          0.00000000	          0.00000000	         -0.00000000	         -0.00000000	          0.00000000	         -0.00000000	          0.03577646	         11.64078070	         -0.33257242	          0.18534177	          0.00000000	          0.05758059	          0.00000000	          0.00000000	          0.00000000	          0.00000000	         -0.21424961	          0.00000000	
          3.68000000	          0.00000000	          0.00000000	         -0.00000000	         -0.00000000	          0.00000000	         -0.00000000	         -1.29595447	          3.38769378	         -0.18609114	          0.14115025	          0.00000000	          0.04321173	          0.00000000	          0.00000000	          0.00000000	          0.00000000	          0.07592761	          0.00000000	
          3.68500000	          0.00000000	          0.00000000	         -0.00000000	         -0.00000000	          0.00000000	         -0.00000000	         -2.04747339	         -2.17277661	         -0.07743798	          0.10164781	          0.00000000	          0.03057973	          0.00000000	          0.00000000	          0.00000000	          0.00000000	          0.25600768	          0.00000000	
          3.69000000	          0.00000000	         -0.00000000	         -0.00000000	         -0.00000000	          0.00000000	         -0.00000000	         -2.36747752	         -5.56675819	         -0.00163640	          0.06827654	          0.00000000	          0.02006059	          0.00000000	          0.00000000	          0.00000000	          0.00000000	          0.35124244	          0.00000000	
          3.69500000	         -0.00000000	         -0.00000000	         -0.00000000	         -0.00000000	          0.00000000	         -0.00000000	         -2.38545113	         -7.30298956	          0.04710310	          0.04147635	          0.00000000	          0.01172831	          0.00000000	          0.00000000	          0.00000000	          0.00000000	          0.38453561	          0.00000000	
          3.70000000	         -0.00000000	         -0.00000000	         -0.00000000	         -0.00000000	          0.00000000	         -0.00000000	         -2.20831692	         -7.83882294	          0.07463352	          0.02100963	          0.00000000	          0.00545742	          0.00000000	         -0.00000000	          0.00000000	          0.00000000	          0.37547376	          0.00000000	
          3.70500000	         -0.00000000	         -0.00000000	         -0.00000000	         -0.00000000	          0.00000000	         -0.00000000	         -1.92007301	         -7.56248639	          0.08638563	          0.00622311	          0.00000000	          0.00100440	          0.00000000	         -0.00000000	          0.00000000	          0.00000000	          0.33996713	          0.00000000	
          3.71000000	         -0.00000000	         -0.00000000	         -0.00000000	          0.00000000	          0.00000000	          0.00000000	         -1.58337322	         -6.78717588	          0.08708997	         -0.00375138	          0.00000000	         -0.00193067	          0.00000000	         -0.00000000	          0.00000000	          0.00000000	          0.29031013	          0.00000000	
          3.71500000	         -0.00000000	         -0.00000000	         -0.00000000	          0.00000000	          0.00000000	          0.00000000	         -1.24222848	         -5.75320072	          0.08065389	         -0.00985113	          0.00000000	         -0.00366018	          0.00000000	         -0.00000000	          0.00000000	          0.00000000	          0.23550604	          0.00000000	
          3.72000000	         -0.00000000	         -0.00000000	          0.00000000	          0.00000000	          0.00000000	          0.00000000	         -0.92521372	         -4.63512387	          0.07014781	         -0.01298368	          0.00000000	         -0.00447980	          0.00000000	         -0.00000000	          0.00000000	          0.00000000	          0.18173556	          0.00000000	
          3.72500000	         -0.00000000	         -0.00000000	          0.00000000	          0.00000000	          0.00000000	          0.00000000	         -0.64874508	         -3.55154059	          0.05786262	         -0.01396567	          0.00000000	         -0.00465112	          0.00000000	         -0.00000000	          0.00000000	          0.00000000	          0.13288050	          0.00000000	
          3.73000000	         -0.00000000	         -0.00000000	          0.00000000	          0.00000000	          0.00000000	          0.00000000	         -0.42014320	         -2.57577571	          0.04540813	         -0.01349088	          0.00000000	         -0.00439313	          0.00000000	         -0.00000000	          0.00000000	          0.00000000	          0.09104146	          0.00000000	
          3.73500000	         -0.00000000	         -0.00000000	          0.00000000	          0.00000000	          0.00000000	          0.00000000	         -0.24031700	         -1.74632388	          0.03383007	         -0.01211945	          0.00000000	         -0.00388024	          0.00000000	         -0.00000000	          0.00000000	          0.00000000	          0.05701062	          0.00000000	
          3.74000000	         -0.00000000	         -0.00000000	          0.00000000	          0.00000000	          0.00000000	          0.00000000	         -0.10599177	         -1.07629938	          0.02372974	         -0.01028147	          0.00000000	         -0.00324446	          0.00000000	         -0.00000000	          0.00000000	          0.00000000	          0.03067844	          0.00000000	
          3.74500000	         -0.00000000	         -0.00000000	          0.00000000	          0.00000000	          0.00000000	          0.00000000	         -0.01146894	         -0.56150338	          0.01537586	         -0.00828967	          0.00000000	         -0.00258014	          0.00000000	         -0.00000000	          0.00000000	          0.00000000	          0.01136584	          0.00000000	
          3.75000000	         -0.00000000	         -0.00000000	          0.00000000	          0.00000000	          0.00000000	          0.00000000	          0.05005378	         -0.18696656	          0.00880263	         -0.00635676	          0.00000000	         -0.00195008	          0.00000000	         -0.00000000	          0.00000000	          0.00000000	         -0.00191786	          0.00000000	
          3.75500000	         -0.00000000	         -0.00000000	          0.00000000	          0.00000000	          0.00000000	          0.00000000	          0.08554846	          0.06800345	          0.00389116	         -0.00461447	          0.00000000	         -0.00139180	          0.00000000	         -0.00000000	          0.00000000	          0.00000000	         -0.01028476	          0.00000000	
          3.76000000	         -0.00000000	          0.00000000	          0.00000000	          0.00000000	          0.00000000	          0.00000000	          0.10154466	          0.22613253	          0.00043379	         -0.00313223	          0.00000000	         -0.00092371	          0.00000000	         -0.00000000	          0.00000000	          0.00000000	         -0.01483689	          0.00000000	
          3.76500000	          0.00000000	          0.00000000	          0.00000000	          0.00000000	          0.00000000	          0.00000000	          0.10377176	          0.30965329	         -0.00181766	         -0.00193398	          0.00000000	         -0.00055048	          0.00000000	         -0.00000000	          0.00000000	          0.00000000	         -0.01658267	          0.00000000	
          3.77000000	          0.00000000	          0.00000000	          0.00000000	          0.00000000	          0.00000000	          0.00000000	          0.09699286	          0.33872371	         -0.00311772	         -0.00101261	          0.00000000	         -0.00026760	          0.00000000	          0.00000000	          0.00000000	          0.00000000	         -0.01639071	          0.00000000	
          3.77500000	          0.00000000	          0.00000000	          0.00000000	          0.00000000	          0.00000000	          0.00000000	          0.08497472	          0.33057705	         -0.00370485	         -0.00034166	          0.00000000	         -0.00006503	          0.00000000	          0.00000000	          0.00000000	          0.00000000	         -0.01497130	          0.00000000	
          3.78000000	          0.00000000	          0.00000000	          0.00000000	         -0.00000000	          0.00000000	         -0.00000000	          0.07054725	          0.29920811	         -0.00378835	          0.00011562	          0.00000000	          0.00007002	          0.00000000	          0.00000000	          0.00000000	          0.00000000	         -0.01287702	          0.00000000	
          3.78500000	          0.00000000	          0.00000000	          0.00000000	         -0.00000000	          0.00000000	         -0.00000000	          0.05571576	          0.25542808	         -0.00354229	          0.00039972	          0.00000000	          0.00015108	          0.00000000	          0.00000000	          0.00000000	          0.00000000	         -0.01051558	          0.00000000	
